<?xml version="1.0" standalone="no"?>
<!DOCTYPE svg PUBLIC "-//W3C//DTD SVG 20010904//EN"
 "http://www.w3.org/TR/2001/REC-SVG-20010904/DTD/svg10.dtd">
<svg version="1.0" xmlns="http://www.w3.org/2000/svg"
 width="105.000000pt" height="105.000000pt" viewBox="0 0 105.000000 105.000000"
 preserveAspectRatio="xMidYMid meet">
<metadata>
Created by potrace 1.11, written by Peter Selinger 2001-2013
</metadata>
<g transform="translate(0.000000,105.000000) scale(0.100000,-0.100000)"
fill="#000000" stroke="none">
<path d="M123 936 c-23 -20 -28 -32 -28 -71 0 -39 5 -51 28 -71 31 -26 80 -31
122 -12 20 9 25 18 25 50 0 38 0 38 -41 38 -44 0 -52 -22 -10 -28 14 -2 21 -9
19 -20 -5 -24 -80 -29 -98 -7 -19 23 -17 82 3 102 21 21 76 21 92 0 13 -19 35
-23 35 -7 0 6 -9 19 -20 30 -29 29 -91 27 -127 -4z"/>
<path d="M326 929 c-36 -43 -35 -91 3 -130 41 -40 91 -40 132 0 61 62 19 161
-69 161 -33 0 -45 -6 -66 -31z m122 -33 c17 -34 4 -77 -28 -93 -49 -24 -104
29 -85 84 20 56 87 62 113 9z"/>
<path d="M520 865 l0 -95 60 0 c53 0 61 3 77 26 15 24 16 29 2 53 -12 20 -13
33 -6 49 17 37 -15 62 -80 62 l-53 0 0 -95z m105 55 c11 -18 -15 -40 -46 -40
-24 0 -29 4 -29 25 0 22 4 25 34 25 19 0 38 -5 41 -10z m5 -95 c0 -22 -4 -25
-40 -25 -36 0 -40 3 -40 25 0 23 4 25 40 25 36 0 40 -2 40 -25z"/>
<path d="M757 433 c-11 -10 -8 -325 2 -321 12 4 251 308 251 319 0 10 -243 12
-253 2z"/>
<path d="M926 284 c-9 -8 -16 -30 -16 -47 0 -35 34 -117 48 -117 10 0 52 98
52 120 0 25 -30 60 -50 60 -10 0 -26 -7 -34 -16z m58 -30 c3 -8 -1 -32 -10
-52 l-15 -37 -14 25 c-15 27 -19 62 -8 73 12 13 41 7 47 -9z"/>
<path d="M946 253 c-12 -12 -6 -33 9 -33 8 0 15 6 15 14 0 17 -14 28 -24 19z"/>
<path d="M65 110 c3 -5 8 -10 11 -10 2 0 4 5 4 10 0 6 -5 10 -11 10 -5 0 -7
-4 -4 -10z"/>
<path d="M70 8 c0 -5 219 -7 488 -6 268 1 411 4 317 5 -435 7 -805 7 -805 1z"/>
</g>
</svg>
